<svg xmlns="http://www.w3.org/2000/svg" xmlns:svg="http://www.w3.org/2000/svg" xmlns:xlink="http://www.w3.org/1999/xlink" id="svg3191" width="78.734" height="78.734" version="1.1" viewBox="0 0 78.734 78.734"><metadata id="metadata3195"/><defs id="defs2743"><rect id="p" width="8" height="8" x="0" y="0"/></defs><path style="color:#000;font-style:normal;font-variant:normal;font-weight:400;font-stretch:normal;font-size:medium;line-height:normal;font-family:sans-serif;font-variant-ligatures:normal;font-variant-position:normal;font-variant-caps:normal;font-variant-numeric:normal;font-variant-alternates:normal;font-variant-east-asian:normal;font-feature-settings:normal;font-variation-settings:normal;text-indent:0;text-align:start;text-decoration:none;text-decoration-line:none;text-decoration-style:solid;text-decoration-color:#000;letter-spacing:normal;word-spacing:normal;text-transform:none;writing-mode:lr-tb;direction:ltr;text-orientation:mixed;dominant-baseline:auto;baseline-shift:baseline;text-anchor:start;white-space:normal;shape-padding:0;shape-margin:0;inline-size:0;clip-rule:nonzero;display:inline;overflow:visible;visibility:visible;opacity:1;isolation:auto;mix-blend-mode:normal;color-interpolation:sRGB;color-interpolation-filters:linearRGB;solid-color:#000;solid-opacity:1;vector-effect:none;fill:#000;fill-opacity:.72964;fill-rule:nonzero;stroke:none;stroke-width:5.48151;stroke-linecap:butt;stroke-linejoin:round;stroke-miterlimit:4;stroke-dasharray:none;stroke-dashoffset:0;stroke-opacity:1;color-rendering:auto;image-rendering:auto;shape-rendering:auto;text-rendering:auto;enable-background:accumulate;stop-color:#000;stop-opacity:1" id="path3257" d="m 15.13399,12.393235 a 2.7410288,2.7410288 0 0 0 -2.740755,2.740755 v 14.439816 h 5.481508 V 17.874744 h 11.699062 v -5.481509 z m 34.026578,0 v 5.481508 h 11.699063 v 11.699062 h 5.481508 V 15.13399 A 2.7410288,2.7410288 0 0 0 63.600384,12.393235 Z M 12.393235,49.160567 v 14.439817 a 2.7410288,2.7410288 0 0 0 2.740755,2.740755 H 29.573806 V 60.859631 H 17.874744 V 49.160567 Z m 48.466396,0 V 60.859631 H 49.160567 v 5.481508 h 14.439817 a 2.7410288,2.7410288 0 0 0 2.740755,-2.740755 V 49.160567 Z"/><g id="g3189" fill="#000" transform="matrix(0.22356096,0,0,0.22356096,13.434117,13.434117)"><use id="use2745" width="100%" height="100%" x="32" y="32" xlink:href="#p"/><use id="use2747" width="100%" height="100%" x="32" y="40" xlink:href="#p"/><use id="use2749" width="100%" height="100%" x="32" y="48" xlink:href="#p"/><use id="use2751" width="100%" height="100%" x="32" y="56" xlink:href="#p"/><use id="use2753" width="100%" height="100%" x="32" y="64" xlink:href="#p"/><use id="use2755" width="100%" height="100%" x="32" y="72" xlink:href="#p"/><use id="use2757" width="100%" height="100%" x="32" y="80" xlink:href="#p"/><use id="use2759" width="100%" height="100%" x="32" y="96" xlink:href="#p"/><use id="use2761" width="100%" height="100%" x="32" y="104" xlink:href="#p"/><use id="use2763" width="100%" height="100%" x="32" y="128" xlink:href="#p"/><use id="use2765" width="100%" height="100%" x="32" y="144" xlink:href="#p"/><use id="use2767" width="100%" height="100%" x="32" y="152" xlink:href="#p"/><use id="use2769" width="100%" height="100%" x="32" y="160" xlink:href="#p"/><use id="use2771" width="100%" height="100%" x="32" y="168" xlink:href="#p"/><use id="use2773" width="100%" height="100%" x="32" y="176" xlink:href="#p"/><use id="use2775" width="100%" height="100%" x="32" y="184" xlink:href="#p"/><use id="use2777" width="100%" height="100%" x="32" y="192" xlink:href="#p"/><use id="use2779" width="100%" height="100%" x="40" y="32" xlink:href="#p"/><use id="use2781" width="100%" height="100%" x="40" y="80" xlink:href="#p"/><use id="use2783" width="100%" height="100%" x="40" y="96" xlink:href="#p"/><use id="use2785" width="100%" height="100%" x="40" y="104" xlink:href="#p"/><use id="use2787" width="100%" height="100%" x="40" y="120" xlink:href="#p"/><use id="use2789" width="100%" height="100%" x="40" y="128" xlink:href="#p"/><use id="use2791" width="100%" height="100%" x="40" y="144" xlink:href="#p"/><use id="use2793" width="100%" height="100%" x="40" y="192" xlink:href="#p"/><use id="use2795" width="100%" height="100%" x="48" y="32" xlink:href="#p"/><use id="use2797" width="100%" height="100%" x="48" y="48" xlink:href="#p"/><use id="use2799" width="100%" height="100%" x="48" y="56" xlink:href="#p"/><use id="use2801" width="100%" height="100%" x="48" y="64" xlink:href="#p"/><use id="use2803" width="100%" height="100%" x="48" y="80" xlink:href="#p"/><use id="use2805" width="100%" height="100%" x="48" y="96" xlink:href="#p"/><use id="use2807" width="100%" height="100%" x="48" y="112" xlink:href="#p"/><use id="use2809" width="100%" height="100%" x="48" y="144" xlink:href="#p"/><use id="use2811" width="100%" height="100%" x="48" y="160" xlink:href="#p"/><use id="use2813" width="100%" height="100%" x="48" y="168" xlink:href="#p"/><use id="use2815" width="100%" height="100%" x="48" y="176" xlink:href="#p"/><use id="use2817" width="100%" height="100%" x="48" y="192" xlink:href="#p"/><use id="use2819" width="100%" height="100%" x="56" y="32" xlink:href="#p"/><use id="use2821" width="100%" height="100%" x="56" y="48" xlink:href="#p"/><use id="use2823" width="100%" height="100%" x="56" y="56" xlink:href="#p"/><use id="use2825" width="100%" height="100%" x="56" y="64" xlink:href="#p"/><use id="use2827" width="100%" height="100%" x="56" y="80" xlink:href="#p"/><use id="use2829" width="100%" height="100%" x="56" y="96" xlink:href="#p"/><use id="use2831" width="100%" height="100%" x="56" y="104" xlink:href="#p"/><use id="use2833" width="100%" height="100%" x="56" y="128" xlink:href="#p"/><use id="use2835" width="100%" height="100%" x="56" y="144" xlink:href="#p"/><use id="use2837" width="100%" height="100%" x="56" y="160" xlink:href="#p"/><use id="use2839" width="100%" height="100%" x="56" y="168" xlink:href="#p"/><use id="use2841" width="100%" height="100%" x="56" y="176" xlink:href="#p"/><use id="use2843" width="100%" height="100%" x="56" y="192" xlink:href="#p"/><use id="use2845" width="100%" height="100%" x="64" y="32" xlink:href="#p"/><use id="use2847" width="100%" height="100%" x="64" y="48" xlink:href="#p"/><use id="use2849" width="100%" height="100%" x="64" y="56" xlink:href="#p"/><use id="use2851" width="100%" height="100%" x="64" y="64" xlink:href="#p"/><use id="use2853" width="100%" height="100%" x="64" y="80" xlink:href="#p"/><use id="use2855" width="100%" height="100%" x="64" y="96" xlink:href="#p"/><use id="use2857" width="100%" height="100%" x="64" y="112" xlink:href="#p"/><use id="use2859" width="100%" height="100%" x="64" y="120" xlink:href="#p"/><use id="use2861" width="100%" height="100%" x="64" y="144" xlink:href="#p"/><use id="use2863" width="100%" height="100%" x="64" y="160" xlink:href="#p"/><use id="use2865" width="100%" height="100%" x="64" y="168" xlink:href="#p"/><use id="use2867" width="100%" height="100%" x="64" y="176" xlink:href="#p"/><use id="use2869" width="100%" height="100%" x="64" y="192" xlink:href="#p"/><use id="use2871" width="100%" height="100%" x="72" y="32" xlink:href="#p"/><use id="use2873" width="100%" height="100%" x="72" y="80" xlink:href="#p"/><use id="use2875" width="100%" height="100%" x="72" y="112" xlink:href="#p"/><use id="use2877" width="100%" height="100%" x="72" y="128" xlink:href="#p"/><use id="use2879" width="100%" height="100%" x="72" y="144" xlink:href="#p"/><use id="use2881" width="100%" height="100%" x="72" y="192" xlink:href="#p"/><use id="use2883" width="100%" height="100%" x="80" y="32" xlink:href="#p"/><use id="use2885" width="100%" height="100%" x="80" y="40" xlink:href="#p"/><use id="use2887" width="100%" height="100%" x="80" y="48" xlink:href="#p"/><use id="use2889" width="100%" height="100%" x="80" y="56" xlink:href="#p"/><use id="use2891" width="100%" height="100%" x="80" y="64" xlink:href="#p"/><use id="use2893" width="100%" height="100%" x="80" y="72" xlink:href="#p"/><use id="use2895" width="100%" height="100%" x="80" y="80" xlink:href="#p"/><use id="use2897" width="100%" height="100%" x="80" y="96" xlink:href="#p"/><use id="use2899" width="100%" height="100%" x="80" y="112" xlink:href="#p"/><use id="use2901" width="100%" height="100%" x="80" y="128" xlink:href="#p"/><use id="use2903" width="100%" height="100%" x="80" y="144" xlink:href="#p"/><use id="use2905" width="100%" height="100%" x="80" y="152" xlink:href="#p"/><use id="use2907" width="100%" height="100%" x="80" y="160" xlink:href="#p"/><use id="use2909" width="100%" height="100%" x="80" y="168" xlink:href="#p"/><use id="use2911" width="100%" height="100%" x="80" y="176" xlink:href="#p"/><use id="use2913" width="100%" height="100%" x="80" y="184" xlink:href="#p"/><use id="use2915" width="100%" height="100%" x="80" y="192" xlink:href="#p"/><use id="use2917" width="100%" height="100%" x="88" y="96" xlink:href="#p"/><use id="use2919" width="100%" height="100%" x="88" y="128" xlink:href="#p"/><use id="use2921" width="100%" height="100%" x="96" y="40" xlink:href="#p"/><use id="use2923" width="100%" height="100%" x="96" y="56" xlink:href="#p"/><use id="use2925" width="100%" height="100%" x="96" y="72" xlink:href="#p"/><use id="use2927" width="100%" height="100%" x="96" y="80" xlink:href="#p"/><use id="use2929" width="100%" height="100%" x="96" y="96" xlink:href="#p"/><use id="use2931" width="100%" height="100%" x="96" y="120" xlink:href="#p"/><use id="use2933" width="100%" height="100%" x="96" y="128" xlink:href="#p"/><use id="use2935" width="100%" height="100%" x="96" y="136" xlink:href="#p"/><use id="use2937" width="100%" height="100%" x="96" y="144" xlink:href="#p"/><use id="use2939" width="100%" height="100%" x="96" y="160" xlink:href="#p"/><use id="use2941" width="100%" height="100%" x="96" y="168" xlink:href="#p"/><use id="use2943" width="100%" height="100%" x="96" y="176" xlink:href="#p"/><use id="use2945" width="100%" height="100%" x="96" y="184" xlink:href="#p"/><use id="use2947" width="100%" height="100%" x="96" y="192" xlink:href="#p"/><use id="use2949" width="100%" height="100%" x="104" y="32" xlink:href="#p"/><use id="use2951" width="100%" height="100%" x="104" y="48" xlink:href="#p"/><use id="use2953" width="100%" height="100%" x="104" y="72" xlink:href="#p"/><use id="use2955" width="100%" height="100%" x="104" y="96" xlink:href="#p"/><use id="use2957" width="100%" height="100%" x="104" y="112" xlink:href="#p"/><use id="use2959" width="100%" height="100%" x="104" y="128" xlink:href="#p"/><use id="use2961" width="100%" height="100%" x="104" y="136" xlink:href="#p"/><use id="use2963" width="100%" height="100%" x="104" y="160" xlink:href="#p"/><use id="use2965" width="100%" height="100%" x="112" y="64" xlink:href="#p"/><use id="use2967" width="100%" height="100%" x="112" y="72" xlink:href="#p"/><use id="use2969" width="100%" height="100%" x="112" y="80" xlink:href="#p"/><use id="use2971" width="100%" height="100%" x="112" y="88" xlink:href="#p"/><use id="use2973" width="100%" height="100%" x="112" y="104" xlink:href="#p"/><use id="use2975" width="100%" height="100%" x="112" y="112" xlink:href="#p"/><use id="use2977" width="100%" height="100%" x="112" y="120" xlink:href="#p"/><use id="use2979" width="100%" height="100%" x="112" y="128" xlink:href="#p"/><use id="use2981" width="100%" height="100%" x="112" y="144" xlink:href="#p"/><use id="use2983" width="100%" height="100%" x="112" y="160" xlink:href="#p"/><use id="use2985" width="100%" height="100%" x="112" y="168" xlink:href="#p"/><use id="use2987" width="100%" height="100%" x="112" y="176" xlink:href="#p"/><use id="use2989" width="100%" height="100%" x="112" y="184" xlink:href="#p"/><use id="use2991" width="100%" height="100%" x="120" y="40" xlink:href="#p"/><use id="use2993" width="100%" height="100%" x="120" y="56" xlink:href="#p"/><use id="use2995" width="100%" height="100%" x="120" y="64" xlink:href="#p"/><use id="use2997" width="100%" height="100%" x="120" y="88" xlink:href="#p"/><use id="use2999" width="100%" height="100%" x="120" y="112" xlink:href="#p"/><use id="use3001" width="100%" height="100%" x="120" y="128" xlink:href="#p"/><use id="use3003" width="100%" height="100%" x="120" y="136" xlink:href="#p"/><use id="use3005" width="100%" height="100%" x="120" y="152" xlink:href="#p"/><use id="use3007" width="100%" height="100%" x="120" y="176" xlink:href="#p"/><use id="use3009" width="100%" height="100%" x="120" y="192" xlink:href="#p"/><use id="use3011" width="100%" height="100%" x="128" y="32" xlink:href="#p"/><use id="use3013" width="100%" height="100%" x="128" y="64" xlink:href="#p"/><use id="use3015" width="100%" height="100%" x="128" y="72" xlink:href="#p"/><use id="use3017" width="100%" height="100%" x="128" y="80" xlink:href="#p"/><use id="use3019" width="100%" height="100%" x="128" y="88" xlink:href="#p"/><use id="use3021" width="100%" height="100%" x="128" y="96" xlink:href="#p"/><use id="use3023" width="100%" height="100%" x="128" y="104" xlink:href="#p"/><use id="use3025" width="100%" height="100%" x="128" y="136" xlink:href="#p"/><use id="use3027" width="100%" height="100%" x="128" y="144" xlink:href="#p"/><use id="use3029" width="100%" height="100%" x="128" y="152" xlink:href="#p"/><use id="use3031" width="100%" height="100%" x="128" y="160" xlink:href="#p"/><use id="use3033" width="100%" height="100%" x="128" y="168" xlink:href="#p"/><use id="use3035" width="100%" height="100%" x="136" y="96" xlink:href="#p"/><use id="use3037" width="100%" height="100%" x="136" y="112" xlink:href="#p"/><use id="use3039" width="100%" height="100%" x="136" y="128" xlink:href="#p"/><use id="use3041" width="100%" height="100%" x="136" y="136" xlink:href="#p"/><use id="use3043" width="100%" height="100%" x="136" y="152" xlink:href="#p"/><use id="use3045" width="100%" height="100%" x="136" y="176" xlink:href="#p"/><use id="use3047" width="100%" height="100%" x="136" y="192" xlink:href="#p"/><use id="use3049" width="100%" height="100%" x="144" y="32" xlink:href="#p"/><use id="use3051" width="100%" height="100%" x="144" y="40" xlink:href="#p"/><use id="use3053" width="100%" height="100%" x="144" y="48" xlink:href="#p"/><use id="use3055" width="100%" height="100%" x="144" y="56" xlink:href="#p"/><use id="use3057" width="100%" height="100%" x="144" y="64" xlink:href="#p"/><use id="use3059" width="100%" height="100%" x="144" y="72" xlink:href="#p"/><use id="use3061" width="100%" height="100%" x="144" y="80" xlink:href="#p"/><use id="use3063" width="100%" height="100%" x="144" y="136" xlink:href="#p"/><use id="use3065" width="100%" height="100%" x="144" y="144" xlink:href="#p"/><use id="use3067" width="100%" height="100%" x="144" y="152" xlink:href="#p"/><use id="use3069" width="100%" height="100%" x="152" y="32" xlink:href="#p"/><use id="use3071" width="100%" height="100%" x="152" y="80" xlink:href="#p"/><use id="use3073" width="100%" height="100%" x="152" y="96" xlink:href="#p"/><use id="use3075" width="100%" height="100%" x="152" y="104" xlink:href="#p"/><use id="use3077" width="100%" height="100%" x="152" y="120" xlink:href="#p"/><use id="use3079" width="100%" height="100%" x="152" y="144" xlink:href="#p"/><use id="use3081" width="100%" height="100%" x="152" y="160" xlink:href="#p"/><use id="use3083" width="100%" height="100%" x="152" y="168" xlink:href="#p"/><use id="use3085" width="100%" height="100%" x="152" y="184" xlink:href="#p"/><use id="use3087" width="100%" height="100%" x="160" y="32" xlink:href="#p"/><use id="use3089" width="100%" height="100%" x="160" y="48" xlink:href="#p"/><use id="use3091" width="100%" height="100%" x="160" y="56" xlink:href="#p"/><use id="use3093" width="100%" height="100%" x="160" y="64" xlink:href="#p"/><use id="use3095" width="100%" height="100%" x="160" y="80" xlink:href="#p"/><use id="use3097" width="100%" height="100%" x="160" y="112" xlink:href="#p"/><use id="use3099" width="100%" height="100%" x="160" y="120" xlink:href="#p"/><use id="use3101" width="100%" height="100%" x="160" y="128" xlink:href="#p"/><use id="use3103" width="100%" height="100%" x="160" y="176" xlink:href="#p"/><use id="use3105" width="100%" height="100%" x="160" y="184" xlink:href="#p"/><use id="use3107" width="100%" height="100%" x="160" y="192" xlink:href="#p"/><use id="use3109" width="100%" height="100%" x="168" y="32" xlink:href="#p"/><use id="use3111" width="100%" height="100%" x="168" y="48" xlink:href="#p"/><use id="use3113" width="100%" height="100%" x="168" y="56" xlink:href="#p"/><use id="use3115" width="100%" height="100%" x="168" y="64" xlink:href="#p"/><use id="use3117" width="100%" height="100%" x="168" y="80" xlink:href="#p"/><use id="use3119" width="100%" height="100%" x="168" y="96" xlink:href="#p"/><use id="use3121" width="100%" height="100%" x="168" y="136" xlink:href="#p"/><use id="use3123" width="100%" height="100%" x="168" y="152" xlink:href="#p"/><use id="use3125" width="100%" height="100%" x="168" y="176" xlink:href="#p"/><use id="use3127" width="100%" height="100%" x="168" y="192" xlink:href="#p"/><use id="use3129" width="100%" height="100%" x="176" y="32" xlink:href="#p"/><use id="use3131" width="100%" height="100%" x="176" y="48" xlink:href="#p"/><use id="use3133" width="100%" height="100%" x="176" y="56" xlink:href="#p"/><use id="use3135" width="100%" height="100%" x="176" y="64" xlink:href="#p"/><use id="use3137" width="100%" height="100%" x="176" y="80" xlink:href="#p"/><use id="use3139" width="100%" height="100%" x="176" y="104" xlink:href="#p"/><use id="use3141" width="100%" height="100%" x="176" y="120" xlink:href="#p"/><use id="use3143" width="100%" height="100%" x="176" y="128" xlink:href="#p"/><use id="use3145" width="100%" height="100%" x="176" y="160" xlink:href="#p"/><use id="use3147" width="100%" height="100%" x="176" y="168" xlink:href="#p"/><use id="use3149" width="100%" height="100%" x="176" y="176" xlink:href="#p"/><use id="use3151" width="100%" height="100%" x="176" y="184" xlink:href="#p"/><use id="use3153" width="100%" height="100%" x="176" y="192" xlink:href="#p"/><use id="use3155" width="100%" height="100%" x="184" y="32" xlink:href="#p"/><use id="use3157" width="100%" height="100%" x="184" y="80" xlink:href="#p"/><use id="use3159" width="100%" height="100%" x="184" y="96" xlink:href="#p"/><use id="use3161" width="100%" height="100%" x="184" y="104" xlink:href="#p"/><use id="use3163" width="100%" height="100%" x="184" y="112" xlink:href="#p"/><use id="use3165" width="100%" height="100%" x="184" y="120" xlink:href="#p"/><use id="use3167" width="100%" height="100%" x="184" y="136" xlink:href="#p"/><use id="use3169" width="100%" height="100%" x="184" y="144" xlink:href="#p"/><use id="use3171" width="100%" height="100%" x="184" y="192" xlink:href="#p"/><use id="use3173" width="100%" height="100%" x="192" y="32" xlink:href="#p"/><use id="use3175" width="100%" height="100%" x="192" y="40" xlink:href="#p"/><use id="use3177" width="100%" height="100%" x="192" y="48" xlink:href="#p"/><use id="use3179" width="100%" height="100%" x="192" y="56" xlink:href="#p"/><use id="use3181" width="100%" height="100%" x="192" y="64" xlink:href="#p"/><use id="use3183" width="100%" height="100%" x="192" y="72" xlink:href="#p"/><use id="use3185" width="100%" height="100%" x="192" y="80" xlink:href="#p"/><use id="use3187" width="100%" height="100%" x="192" y="152" xlink:href="#p"/></g></svg>